HIERARCHY
ROOT Hips
{
	OFFSET 0.000000 0.000007 97.120003
	CHANNELS 6 Xposition Yposition Zposition Yrotation Xrotation Zrotation
	JOINT RightUpLeg
	{
		OFFSET -11.000000 0.000000 0.000000
		CHANNELS 3 Yrotation Xrotation Zrotation
		JOINT RightLeg
		{
			OFFSET 0.000000 -0.000003 -45.062000
			CHANNELS 3 Yrotation Xrotation Zrotation
			JOINT RightFoot
			{
				OFFSET 0.000000 -0.000003 -42.057999
				CHANNELS 3 Yrotation Xrotation Zrotation
				End Site
				{
					OFFSET 0.000000 -15.120001 -9.999999
				}
			}
		}
	}
	JOINT LeftUpLeg
	{
		OFFSET 11.000000 0.000000 0.000000
		CHANNELS 3 Yrotation Xrotation Zrotation
		JOINT LeftLeg
		{
			OFFSET 0.000000 -0.000003 -45.062000
			CHANNELS 3 Yrotation Xrotation Zrotation
			JOINT LeftFoot
			{
				OFFSET 0.000000 -0.000003 -42.057999
				CHANNELS 3 Yrotation Xrotation Zrotation
				End Site
				{
					OFFSET 0.000000 -15.120001 -9.999999
				}
			}
		}
	}
	JOINT Spine
	{
		OFFSET 0.000000 0.000001 8.120003
		CHANNELS 3 Yrotation Xrotation Zrotation
		JOINT Spine1
		{
			OFFSET 0.000000 0.000001 17.979996
			CHANNELS 3 Yrotation Xrotation Zrotation
			JOINT Spine2
			{
				OFFSET 0.000000 0.000001 12.759995
				CHANNELS 3 Yrotation Xrotation Zrotation
				JOINT Neck
				{
					OFFSET 0.000000 0.000001 19.139999
					CHANNELS 3 Yrotation Xrotation Zrotation
					JOINT Neck1
					{
						OFFSET 0.000000 0.000000 4.250000
						CHANNELS 3 Yrotation Xrotation Zrotation
						JOINT Head
						{
							OFFSET 0.000000 0.000000 4.250000
							CHANNELS 3 Yrotation Xrotation Zrotation
							End Site
							{
								OFFSET 0.000000 0.000001 19.119995
							}
						}
					}
				}
				JOINT RightShoulder
				{
					OFFSET -2.900000 0.000001 13.339996
					CHANNELS 3 Yrotation Xrotation Zrotation
					JOINT RightArm
					{
						OFFSET -16.100000 0.000000 0.000000
						CHANNELS 3 Yrotation Xrotation Zrotation
						JOINT RightForeArm
						{
							OFFSET -28.000000 0.000000 0.000000
							CHANNELS 3 Yrotation Xrotation Zrotation
							JOINT RightHand
							{
								OFFSET -26.000000 0.000000 0.000000
								CHANNELS 3 Yrotation Xrotation Zrotation
								JOINT RightHandThumb1
								{
									OFFSET -1.936996 -2.518000 -0.483994
									CHANNELS 3 Yrotation Xrotation Zrotation
									JOINT RightHandThumb2
									{
										OFFSET -3.872002 0.000000 0.000000
										CHANNELS 3 Yrotation Xrotation Zrotation
										JOINT RightHandThumb3
										{
											OFFSET -2.690002 0.000000 0.000000
											CHANNELS 3 Yrotation Xrotation Zrotation
											End Site
											{
												OFFSET -2.537003 0.000000 0.000000
											}
										}
									}
								}
								JOINT RightInHandIndex
								{
									OFFSET -3.389000 -2.080000 0.535004
									CHANNELS 3 Yrotation Xrotation Zrotation
									JOINT RightHandIndex1
									{
										OFFSET -5.485001 -1.051000 -0.095993
										CHANNELS 3 Yrotation Xrotation Zrotation
										JOINT RightHandIndex2
										{
											OFFSET -3.806000 0.000000 0.000000
											CHANNELS 3 Yrotation Xrotation Zrotation
											JOINT RightHandIndex3
											{
												OFFSET -2.157997 0.000000 0.000000
												CHANNELS 3 Yrotation Xrotation Zrotation
												End Site
												{
													OFFSET -1.898003 0.000000 0.000000
												}
											}
										}
									}
								}
								JOINT RightInHandMiddle
								{
									OFFSET -3.556000 -0.796000 0.544006
									CHANNELS 3 Yrotation Xrotation Zrotation
									JOINT RightHandMiddle1
									{
										OFFSET -5.441002 -0.330000 -0.087997
										CHANNELS 3 Yrotation Xrotation Zrotation
										JOINT RightHandMiddle2
										{
											OFFSET -4.153000 0.000000 0.000000
											CHANNELS 3 Yrotation Xrotation Zrotation
											JOINT RightHandMiddle3
											{
												OFFSET -2.602997 0.000000 0.000000
												CHANNELS 3 Yrotation Xrotation Zrotation
												End Site
												{
													OFFSET -2.075996 0.000000 0.000000
												}
											}
										}
									}
								}
								JOINT RightInHandRing
								{
									OFFSET -3.539001 0.136000 0.565994
									CHANNELS 3 Yrotation Xrotation Zrotation
									JOINT RightHandRing1
									{
										OFFSET -4.873001 0.504000 -0.022995
										CHANNELS 3 Yrotation Xrotation Zrotation
										JOINT RightHandRing2
										{
											OFFSET -3.619003 0.000000 0.000000
											CHANNELS 3 Yrotation Xrotation Zrotation
											JOINT RightHandRing3
											{
												OFFSET -2.511002 0.000000 0.000000
												CHANNELS 3 Yrotation Xrotation Zrotation
												End Site
												{
													OFFSET -1.952003 0.000000 0.000000
												}
											}
										}
									}
								}
								JOINT RightInHandPinky
								{
									OFFSET -3.323997 1.264000 0.494003
									CHANNELS 3 Yrotation Xrotation Zrotation
									JOINT RightHandPinky1
									{
										OFFSET -4.353996 1.147000 -0.022995
										CHANNELS 3 Yrotation Xrotation Zrotation
										JOINT RightHandPinky2
										{
											OFFSET -2.898003 0.000000 0.000000
											CHANNELS 3 Yrotation Xrotation Zrotation
											JOINT RightHandPinky3
											{
												OFFSET -1.831001 0.000000 0.000000
												CHANNELS 3 Yrotation Xrotation Zrotation
												End Site
												{
													OFFSET -1.730003 0.000000 0.000000
												}
											}
										}
									}
								}
							}
						}
					}
				}
				JOINT LeftShoulder
				{
					OFFSET 2.900000 0.000001 13.339996
					CHANNELS 3 Yrotation Xrotation Zrotation
					JOINT LeftArm
					{
						OFFSET 16.100000 0.000000 0.000000
						CHANNELS 3 Yrotation Xrotation Zrotation
						JOINT LeftForeArm
						{
							OFFSET 28.000000 0.000000 0.000000
							CHANNELS 3 Yrotation Xrotation Zrotation
							JOINT LeftHand
							{
								OFFSET 26.000000 0.000000 0.000000
								CHANNELS 3 Yrotation Xrotation Zrotation
								JOINT LeftHandThumb1
								{
									OFFSET 1.936996 -2.518000 -0.483994
									CHANNELS 3 Yrotation Xrotation Zrotation
									JOINT LeftHandThumb2
									{
										OFFSET 3.872002 0.000000 0.000000
										CHANNELS 3 Yrotation Xrotation Zrotation
										JOINT LeftHandThumb3
										{
											OFFSET 2.690002 0.000000 0.000000
											CHANNELS 3 Yrotation Xrotation Zrotation
											End Site
											{
												OFFSET 2.537003 0.000000 0.000000
											}
										}
									}
								}
								JOINT LeftInHandIndex
								{
									OFFSET 3.389000 -2.080000 0.535004
									CHANNELS 3 Yrotation Xrotation Zrotation
									JOINT LeftHandIndex1
									{
										OFFSET 5.485001 -1.051000 -0.095993
										CHANNELS 3 Yrotation Xrotation Zrotation
										JOINT LeftHandIndex2
										{
											OFFSET 3.806000 0.000000 0.000000
											CHANNELS 3 Yrotation Xrotation Zrotation
											JOINT LeftHandIndex3
											{
												OFFSET 2.157997 0.000000 0.000000
												CHANNELS 3 Yrotation Xrotation Zrotation
												End Site
												{
													OFFSET 1.898003 0.000000 0.000000
												}
											}
										}
									}
								}
								JOINT LeftInHandMiddle
								{
									OFFSET 3.556000 -0.796000 0.544006
									CHANNELS 3 Yrotation Xrotation Zrotation
									JOINT LeftHandMiddle1
									{
										OFFSET 5.441002 -0.330000 -0.087997
										CHANNELS 3 Yrotation Xrotation Zrotation
										JOINT LeftHandMiddle2
										{
											OFFSET 4.153000 0.000000 0.000000
											CHANNELS 3 Yrotation Xrotation Zrotation
											JOINT LeftHandMiddle3
											{
												OFFSET 2.602997 0.000000 0.000000
												CHANNELS 3 Yrotation Xrotation Zrotation
												End Site
												{
													OFFSET 2.075996 0.000000 0.000000
												}
											}
										}
									}
								}
								JOINT LeftInHandRing
								{
									OFFSET 3.539001 0.136000 0.565994
									CHANNELS 3 Yrotation Xrotation Zrotation
									JOINT LeftHandRing1
									{
										OFFSET 4.873001 0.504000 -0.022995
										CHANNELS 3 Yrotation Xrotation Zrotation
										JOINT LeftHandRing2
										{
											OFFSET 3.619003 0.000000 0.000000
											CHANNELS 3 Yrotation Xrotation Zrotation
											JOINT LeftHandRing3
											{
												OFFSET 2.511002 0.000000 0.000000
												CHANNELS 3 Yrotation Xrotation Zrotation
												End Site
												{
													OFFSET 1.952003 0.000000 0.000000
												}
											}
										}
									}
								}
								JOINT LeftInHandPinky
								{
									OFFSET 3.323997 1.264000 0.494003
									CHANNELS 3 Yrotation Xrotation Zrotation
									JOINT LeftHandPinky1
									{
										OFFSET 4.353996 1.147000 -0.022995
										CHANNELS 3 Yrotation Xrotation Zrotation
										JOINT LeftHandPinky2
										{
											OFFSET 2.898003 0.000000 0.000000
											CHANNELS 3 Yrotation Xrotation Zrotation
											JOINT LeftHandPinky3
											{
												OFFSET 1.831001 0.000000 0.000000
												CHANNELS 3 Yrotation Xrotation Zrotation
												End Site
												{
													OFFSET 1.730003 0.000000 0.000000
												}
											}
										}
									}
								}
							}
						}
					}
				}
			}
		}
	}
}
MOTION
Frames: 6
Frame Time: 0.033367
-0.162050 0.392008 92.591499 0.922059 3.377030 -3.428287 8.219050 7.036515 -27.611897 -6.246380 3.248752 -103.999418 2.092359 4.501866 128.296443 -9.889615 3.720995 27.908262 2.969873 9.488782 103.605289 0.830693 6.813416 -128.069653 -0.731201 -4.838735 2.501172 -0.598776 -3.988728 2.409657 -0.000686 7.311758 0.001318 -2.670664 1.391084 0.317127 -0.000000 0.000000 -0.000000 2.948879 -3.301958 2.422343 12.100880 -26.329537 -33.587325 -81.319727 32.522519 -29.957111 -0.000297 -0.000879 2.413499 -11.348568 25.417533 -4.592509 26.817331 62.572920 66.845736 -14.751902 -14.186667 3.639419 175.320547 22.307594 -12.400304 -0.000001 -0.000002 0.000001 -4.057152 19.512138 24.170479 -8.856933 1.816159 2.252901 11.404028 1.605305 -1.967056 0.000001 0.000003 -0.000000 -6.117327 18.531524 24.691294 -13.305472 2.304675 2.448882 11.453637 0.458777 -0.688574 0.000000 0.000007 -0.000000 -11.595774 18.330761 21.263646 -16.021517 2.341559 1.983834 11.456242 -0.397445 0.421424 0.000001 0.000003 0.000001 -29.054979 16.601639 11.743593 -14.278720 1.767140 0.639404 11.317378 -2.365299 3.431376 -12.100726 -26.340256 33.576168 85.329430 34.452301 35.215738 -0.003161 0.006413 -18.328336 22.074210 -17.171193 16.640771 -29.388979 68.804013 -42.842283 15.455412 -13.759250 -16.369054 -94.641608 34.586609 13.964333 -0.000000 0.000000 0.000001 -2.526683 16.118893 -13.585035 11.426901 1.620056 -1.140905 -66.163175 1.337202 1.942092 0.000000 0.000002 0.000002 9.360006 17.712648 -6.869575 11.370189 1.831218 -2.781928 -58.670990 0.063881 0.921051 -0.000001 0.000004 0.000003 10.138356 17.653037 -4.347837 11.200109 2.792927 -5.301172 -50.029449 -2.247872 0.512155 0.000000 0.000001 -0.000001 11.016520 14.258942 -1.796546 11.104907 4.264924 -4.752672 -33.403877 -5.764089 -2.897794 
-0.105322 0.978952 92.495010 0.723104 2.729412 -3.329854 8.464684 7.692357 -27.658310 -6.245852 3.248068 -103.994432 -0.003787 6.708938 128.352929 -9.558810 7.739840 27.693613 6.244085 3.245903 103.978784 0.485837 6.254184 -128.246159 -0.667685 -4.829480 2.524455 -0.535700 -3.997797 2.372754 -0.000686 7.311758 0.001318 -2.530318 2.385645 0.269536 9.527848 -9.803890 -1.637035 -6.105488 6.273468 3.607682 12.100880 -26.329546 -33.587319 -81.172625 32.305572 -29.782572 -0.000252 -0.000660 1.840957 -9.635046 28.086141 -4.183800 39.399765 63.403724 84.111567 -14.263271 -20.484702 -0.390540 175.134889 23.084048 -12.471933 -0.000001 -0.000001 -0.000002 -6.327330 20.495122 25.544916 -8.735349 1.648102 0.495641 11.395505 1.796036 -2.030218 -0.000001 0.000002 -0.000001 -8.946410 19.131295 24.272542 -13.780036 2.766484 1.827810 11.452582 0.596581 -0.631558 0.000001 0.000008 -0.000003 -15.106054 18.556389 20.076930 -16.416597 3.410561 1.915349 11.456290 -0.282382 0.582233 -0.000001 0.000001 -0.000001 -31.261291 15.997317 10.029767 -15.618271 3.181141 1.629963 11.310970 -2.288610 3.705656 -12.100727 -26.340263 33.576168 85.067991 33.991478 34.833849 -0.002959 0.006080 -17.329235 23.361043 -16.837361 15.093337 -45.604422 72.253778 -58.325226 17.708099 -18.818127 -18.750517 -94.573975 35.211876 14.073232 -0.000002 0.000002 -0.000002 1.533116 17.220099 -14.309958 11.469779 1.003206 0.606454 -67.565830 1.599722 1.988524 0.000001 0.000002 -0.000000 9.505394 17.852684 -6.349334 11.355557 1.907201 -3.109944 -57.006442 -0.067355 1.010217 -0.000002 0.000004 -0.000001 10.593967 17.135382 -2.934183 11.048155 3.973854 -5.909769 -48.090307 -2.842477 0.454934 -0.000001 0.000001 -0.000003 11.513839 12.822128 0.246455 10.923674 6.620237 -4.634636 -29.693131 -7.013252 -4.136654 
0.029734 1.837517 92.446503 0.725868 2.022053 -3.246143 8.567489 7.816132 -27.641270 -6.219182 3.214441 -103.746496 0.467663 6.367757 128.297823 -9.487566 7.828801 27.721552 6.244687 3.246653 103.984316 0.048082 5.801542 -128.395959 -0.531934 -4.812784 2.544997 -0.423797 -3.997355 2.348541 -0.000687 7.311758 0.001321 -2.683092 3.597534 0.331962 9.509059 -9.819471 -1.636316 -5.774017 5.930915 4.419552 12.100881 -26.329536 -33.587315 -81.019738 32.033939 -29.792056 -0.000210 -0.000532 1.471908 -7.890147 30.874449 -3.443661 39.632378 63.141342 84.614248 -13.685004 -20.443607 -0.782182 175.053241 23.422807 -12.504165 -0.000000 0.000003 0.000001 -5.854571 20.388494 25.991576 -8.499277 1.664064 0.527688 11.396015 1.785022 -2.026583 -0.000001 -0.000003 0.000001 -8.893014 19.109587 24.306015 -13.939434 2.783050 1.818679 11.453086 0.557804 -0.623808 -0.000001 -0.000001 -0.000001 -14.572048 18.455707 20.419438 -16.496126 3.432772 1.928975 11.456234 -0.285371 0.586707 -0.000001 -0.000005 0.000001 -30.321781 16.099140 10.849486 -15.829643 3.212867 1.660223 11.311965 -2.272691 3.706760 -12.100721 -26.340254 33.576151 84.614979 33.470529 34.382373 -0.002745 0.005785 -16.385028 24.642979 -16.091641 13.412233 -45.629762 72.247125 -58.350982 17.778928 -18.625456 -19.124830 -94.010778 35.461628 14.117706 0.000001 -0.000002 -0.000002 2.845609 17.525367 -13.791206 11.466737 0.993397 0.437756 -68.553693 1.610257 2.011171 0.000000 0.000001 -0.000001 9.445478 17.703330 -6.595484 11.376211 1.822518 -2.606459 -58.410125 -0.138405 0.910793 0.000001 0.000000 -0.000000 10.517468 17.092574 -3.200894 11.077202 3.766402 -5.794837 -49.430342 -2.632827 0.438440 0.000000 -0.000002 0.000000 11.505791 12.791947 0.210676 10.926788 6.467267 -4.715980 -31.079758 -6.863903 -3.963862 
0.165687 2.898908 92.441200 0.959085 1.278165 -3.187668 8.433249 7.828726 -27.598546 -6.245846 3.248060 -103.994439 1.047340 5.915312 128.228687 -9.647154 7.825263 27.729774 6.242812 3.244303 103.966947 -0.489893 5.258290 -128.481923 -0.508493 -4.809399 2.585845 -0.418338 -4.006624 2.340576 -0.000689 7.311762 0.001314 -2.873261 4.920015 0.500256 9.489841 -9.835144 -1.635523 -5.465400 5.594752 5.369873 12.100885 -26.329549 -33.587315 -81.042865 31.912655 -30.054786 -0.000214 -0.000532 1.464447 -8.138406 31.180408 -3.912839 39.894763 62.838300 85.199049 -13.015659 -20.393874 -1.295436 174.946840 23.861788 -12.546855 0.000001 0.000004 0.000001 -5.299861 20.237813 26.392312 -8.303191 1.677287 0.531704 11.396574 1.772102 -2.022781 -0.000002 0.000001 -0.000001 -8.776370 19.067728 24.354131 -14.086491 2.798616 1.805255 11.453056 0.564590 -0.619863 0.000000 0.000004 -0.000000 -13.896539 18.303136 20.749100 -16.524342 3.449066 1.930765 11.456281 -0.278680 0.589558 -0.000001 0.000001 0.000002 -29.028304 16.131872 11.738770 -15.986758 3.238321 1.706628 11.310239 -2.295932 3.712012 -12.100723 -26.340259 33.576155 84.162725 33.235820 33.867742 -0.002566 0.005510 -15.575632 24.665971 -15.422798 13.680083 -45.998906 72.165511 -58.723993 17.928651 -18.385348 -19.774736 -93.294182 35.744033 14.168639 0.000000 -0.000002 -0.000001 4.353942 17.870249 -13.254385 11.471201 0.978437 0.705277 -70.066942 1.647168 2.029203 0.000000 0.000000 0.000000 9.337556 17.522429 -7.014613 11.390305 1.740447 -2.266071 -60.407696 0.002332 0.854956 0.000001 0.000001 -0.000000 10.419314 17.040991 -3.544129 11.112632 3.513646 -5.636092 -51.228543 -2.371400 0.405532 0.000001 -0.000003 -0.000001 11.494481 12.753141 0.160032 10.933884 6.266000 -4.801477 -32.936743 -6.689476 -3.762598 
0.179870 4.061228 92.458397 1.367831 0.515123 -3.142391 8.031526 7.795776 -27.559479 -6.217589 3.212421 -103.731647 1.618089 5.346118 128.140810 -10.072715 6.752711 27.753188 5.268411 5.120642 103.897505 -0.310633 5.455333 -128.460395 -0.697916 -4.815643 2.664956 -0.583650 -4.025730 2.355313 -0.000687 7.311761 0.001314 -2.917565 6.254475 0.744094 9.470257 -9.850716 -1.634646 -5.194883 5.276910 6.451022 12.100881 -26.329543 -33.587315 -81.063363 31.925834 -30.365471 -0.000226 -0.000610 1.674874 -5.749441 33.182176 -1.887707 40.122201 62.549786 85.723013 -12.371785 -20.331841 -1.840241 174.833295 24.326489 -12.593192 0.000000 0.000003 -0.000000 -4.750681 20.052710 26.592619 -8.230492 1.683623 0.544549 11.399386 1.701093 -2.013090 -0.000002 0.000000 -0.000001 -8.580062 19.001122 24.421345 -14.196541 2.811267 1.780818 11.452976 0.573920 -0.616601 0.000000 0.000003 0.000000 -13.151250 18.120473 21.059497 -16.458591 3.459129 1.941538 11.456260 -0.280067 0.592852 -0.000001 -0.000000 0.000003 -27.472891 16.041596 12.507205 -16.005795 3.245016 1.724665 11.313299 -2.250567 3.709254 -12.100729 -26.340259 33.576168 83.912542 33.384930 33.366444 -0.002438 0.005311 -14.952331 26.500984 -13.974915 11.846204 -46.919284 71.954329 -59.653779 18.190515 -18.114920 -20.786935 -92.500849 36.008631 14.217046 0.000000 0.000000 -0.000001 5.741176 18.193717 -12.875243 11.472336 0.981723 0.769255 -72.084696 1.697825 2.062956 0.000001 0.000001 0.000001 9.174496 17.333746 -7.626938 11.403574 1.680069 -1.895103 -62.958170 0.152554 0.806390 0.000000 0.000003 -0.000001 10.304383 16.997966 -3.944406 11.147210 3.246863 -5.490679 -53.366563 -2.087865 0.367278 -0.000001 0.000001 -0.000001 11.479124 12.716570 0.090722 10.938410 6.039590 -4.937234 -35.125266 -6.466986 -3.532787 
-0.024339 5.217217 92.468307 1.827928 -0.239189 -3.093753 7.420198 7.767927 -27.473872 -6.244712 3.246642 -103.983968 2.066984 4.679369 127.959564 -10.708772 3.827622 27.970041 2.492731 10.381859 103.523278 1.247757 7.062736 -128.425943 -1.042937 -4.826024 2.788030 -0.862009 -4.048706 2.399214 -0.000687 7.311761 0.001318 -2.836221 7.414844 1.024318 9.450519 -9.866387 -1.633748 -4.972976 4.984643 7.645560 12.100882 -26.329548 -33.587315 -80.941942 32.090821 -30.612341 -0.000270 -0.000756 2.096217 -6.217800 33.089903 -2.756650 40.293301 62.321986 86.131602 -11.791235 -20.269724 -2.361756 174.729858 24.746957 -12.636150 -0.000000 -0.000004 -0.000002 -4.247783 19.839314 26.508625 -8.312082 1.678998 0.517680 11.399658 1.695131 -2.010438 -0.000002 -0.000005 -0.000000 -8.272025 18.899205 24.516846 -14.254117 2.821553 1.770422 11.453204 0.559146 -0.611218 -0.000001 -0.000000 -0.000002 -12.387531 17.895224 21.212092 -16.280173 3.453706 1.946115 11.456400 -0.267262 0.592963 -0.000001 -0.000005 0.000003 -25.768834 15.820598 13.039235 -15.842141 3.226450 1.791551 11.309357 -2.306997 3.716318 -12.100722 -26.340261 33.576162 83.952963 33.972835 32.929670 -0.002374 0.005187 -14.602729 26.677315 -14.334422 12.453134 -48.503601 71.581557 -61.250917 18.586806 -17.832039 -22.212410 -91.717296 36.212864 14.254851 0.000000 0.000002 -0.000002 6.749530 18.453288 -12.778046 11.473149 1.002643 0.798939 -74.510950 1.781689 2.104811 0.000001 0.000002 -0.000001 8.958527 17.150069 -8.424420 11.414686 1.661990 -1.533157 -65.974238 0.514637 0.790811 0.000001 0.000003 -0.000001 10.177046 16.982222 -4.381851 11.188360 2.980646 -5.193302 -55.712897 -1.803346 0.288040 -0.000001 0.000001 -0.000001 11.458312 12.695251 -0.003810 10.962666 5.803043 -4.898535 -37.496861 -6.210449 -3.391146 
